<svg height="152px" width="152px" version="1.1" id="Layer_1" xmlns="http://www.w3.org/2000/svg" xmlns:xlink="http://www.w3.org/1999/xlink" viewBox="-177.8 -177.8 863.60 863.60" xml:space="preserve" fill="#000000" stroke="#000000" stroke-width="16.764000000000003" transform="matrix(1, 0, 0, -1, 0, 0)"><g id="SVGRepo_bgCarrier" stroke-width="0"><path transform="translate(-177.8, -177.8), scale(26.9875)" d="M16,29.836446434259415C18.805645430595714,30.19580646110781,22.23386227990848,30.823542502136146,24.25439567027962,28.84409037351207C26.33393472422285,26.806832277951123,25.41373638890697,23.302159275926094,25.633041655151818,20.399262718175372C25.78037116462312,18.449093744933062,25.491642651170498,16.607820894210736,25.326028344809323,14.659119554834552C25.148209236844153,12.56681037290484,25.481940455966033,10.443821470821176,24.62407053397773,8.527200343709014C23.574249807618514,6.1817298565787535,22.223496377872898,3.7715470928733184,19.932151789545276,2.6083208289701254C17.493270186954383,1.3701957782309617,14.246812365746845,0.6505603539414373,11.910698236181766,2.0731171669969246C9.530459329499854,3.5225433874660768,10.17739987732047,7.281741272594349,8.546507510066547,9.541511992799984C7.138398953112929,11.492592610849973,4.101754655344551,11.931787925228644,3.1889211603473804,14.158044940199643C2.217279982851378,16.527724623614265,2.5073546257177233,19.34630003032937,3.5709275881160725,21.67616717964262C4.634571548747969,24.006189857967836,6.860081964625611,25.4846586269105,9.001173137994957,26.890387172476252C11.160830748166127,28.30830546994346,13.43740771098867,29.50821777651877,16,29.836446434259415" fill="#abd1de" strokewidth="0"></path></g><g id="SVGRepo_tracerCarrier" stroke-linecap="round" stroke-linejoin="round"></g><g id="SVGRepo_iconCarrier"> <circle style="fill:#90DFAA;" cx="254" cy="254" r="254"></circle> <path style="fill:#7f93a4;" d="M307.6,130.8c-4.8,0-9.2,1.6-12.4,4.8V92c0-5.6-4.8-10.4-10.4-10.4H242c2.8,3.2,4.8,7.6,4.8,12.4 c0,10.4-8.4,19.2-19.2,19.2c-10.4,0-19.2-8.4-19.2-19.2c0-4.8,1.6-9.2,4.8-12.4h-42.8c-5.6,0-10.4,4.8-10.4,10.4v43.6 c3.2-2.8,7.6-4.8,12.4-4.8c10.4,0,19.2,8.4,19.2,19.2c0,10.4-8.4,19.2-19.2,19.2c-4.8,0-9.2-1.6-12.4-4.8V206 c0,5.6,4.8,10.4,10.4,10.4h42.8c-2.8,3.2-4.8,7.6-4.8,12.4c0,10.4,8.4,19.2,19.2,19.2c10.4,0,19.2-8.4,19.2-19.2 c0-4.8-1.6-9.2-4.8-12.4h42.8c5.6,0,10.4-4.8,10.4-10.4v-41.6c3.2,2.8,7.6,4.8,12.4,4.8c10.4,0,19.2-8.4,19.2-19.2 C326.8,139.6,318,130.8,307.6,130.8z"></path> <path style="fill:#FFFFFF;" d="M434,298.8c-3.6-3.2-8-5.2-12.4-5.2L452,262c4-4,4-10.8-0.4-14.4L420.8,218c-0.4,4.4-2,8.8-5.2,12 c-7.2,7.6-19.2,7.6-26.8,0.4c-7.6-7.2-7.6-19.2-0.4-26.8c3.2-3.6,7.6-5.2,12-5.6L370,167.6c-4-4-10.8-4-14.4,0.4l-30.4,31.6 c4.4,0.4,8.8,2,12.4,5.2c7.6,7.2,7.6,19.2,0.4,26.8s-19.2,7.6-26.8,0.4c-3.6-3.2-5.2-7.6-5.6-12l-30,30c-4,4-4,10.8,0.4,14.4 l30.8,29.6c-4.4,0.4-8.8,2.4-12,5.6c-7.2,7.6-7.2,19.6,0.4,26.8c7.6,7.2,19.6,7.2,26.8-0.4c3.2-3.6,5.2-7.6,5.2-12.4l30.8,29.6 c4,4,10.8,4,14.4-0.4l29.2-30c0.4,4.4,2.4,8.8,5.6,12c7.6,7.2,19.6,7.2,26.8-0.4C441.6,318,441.6,306,434,298.8z"></path> <path style="fill:#FF7058;" d="M244,364.4c-3.6-3.2-8-5.2-12.4-5.2l30.4-31.6c4-4,4-10.8-0.4-14.4l-30.8-29.6c-0.4,4.4-2,8.8-5.2,12 c-7.2,7.6-19.2,7.6-26.8,0.4s-7.6-19.2-0.4-26.8c3.2-3.6,7.6-5.2,12-5.6L179.6,234c-4-4-10.8-4-14.4,0.4L134.8,266 c4.4,0.4,8.8,2,12.4,5.2c7.6,7.2,7.6,19.2,0.4,26.8c-7.2,7.6-19.2,7.6-26.8,0.4c-3.6-3.2-5.2-7.6-5.6-12l-29.2,30 c-4,4-4,10.8,0.4,14.4l30.8,29.6c-4.4,0.4-8.8,2.4-12,5.6c-7.2,7.6-7.2,19.6,0.4,26.8c7.6,7.2,19.6,7.2,26.8-0.4 c3.2-3.6,5.2-7.6,5.2-12.4l30.8,29.6c4,4,10.8,4,14.4-0.4l29.2-30c0.4,4.4,2.4,8.8,5.6,12c7.6,7.2,19.6,7.2,26.8-0.4 C251.6,384,251.6,371.6,244,364.4z"></path> </g></svg>